<svg width="44" height="30" viewBox="0 0 44 30" fill="none" xmlns="http://www.w3.org/2000/svg">
<mask id="mask0_32_53" style="mask-type:luminance" maskUnits="userSpaceOnUse" x="0" y="0" width="10" height="30">
<path d="M0 0H9.6209V29.147H0V0Z" fill="white"/>
</mask>
<g mask="url(#mask0_32_53)">
<path d="M7.87869 0.120544C8.29992 0.120544 8.65039 0.262896 8.92671 0.545926C9.20304 0.83063 9.3412 1.1773 9.3412 1.58761C9.3412 2.00629 9.20304 2.35296 8.92671 2.62762C8.65039 2.90227 8.29992 3.0396 7.87869 3.0396C6.7161 3.0396 6.1348 3.61738 6.1348 4.77127V11.4484C6.1348 12.7882 5.82477 13.85 5.20472 14.6321C5.82477 15.4142 6.1348 16.476 6.1348 17.8174V24.4946C6.1348 25.6485 6.7161 26.2263 7.87869 26.2263C8.29992 26.2263 8.65039 26.3636 8.92671 26.6382C9.20304 26.9129 9.3412 27.2596 9.3412 27.6782C9.3412 28.0969 9.20304 28.4469 8.92671 28.7266C8.65039 29.0046 8.29992 29.1453 7.87869 29.1453C4.75485 29.1453 3.19461 27.5945 3.19461 24.4946V17.8174C3.19461 16.6635 2.61668 16.0858 1.46251 16.0858C1.04128 16.0858 0.692503 15.9484 0.414491 15.6738C0.138164 15.3991 0 15.0524 0 14.6321C0 14.2134 0.138164 13.8667 0.414491 13.5921C0.692503 13.3174 1.04128 13.1801 1.46251 13.1801C2.61668 13.1801 3.19461 12.6023 3.19461 11.4484V4.77127C3.19461 1.67135 4.75485 0.120544 7.87869 0.120544Z" fill="white"/>
</g>
<path d="M19.5257 5.24677C21.3231 5.24677 23.0469 5.95645 24.3178 7.21969C25.5887 8.48294 26.3027 10.1963 26.3027 11.9828C26.3027 13.6512 25.6876 15.1849 24.6763 16.3663L24.9578 16.6461H25.7814L30.9945 21.8277L29.4306 23.3821L24.2175 18.2006V17.3819L23.936 17.1021C22.7063 18.1454 21.1425 18.7187 19.5257 18.7188C17.7284 18.7188 16.0046 18.0091 14.7337 16.7458C13.4628 15.4826 12.7488 13.7693 12.7488 11.9828C12.7488 10.1963 13.4628 8.48294 14.7337 7.21969C16.0046 5.95645 17.7284 5.24677 19.5257 5.24677ZM19.5257 7.31938C16.9192 7.31938 14.834 9.39199 14.834 11.9828C14.834 14.5735 16.9192 16.6461 19.5257 16.6461C22.1323 16.6461 24.2175 14.5735 24.2175 11.9828C24.2175 9.39199 22.1323 7.31938 19.5257 7.31938Z" fill="#03FA6E"/>
<mask id="mask1_32_53" style="mask-type:luminance" maskUnits="userSpaceOnUse" x="34" y="0" width="10" height="30">
<path d="M34.6436 0.0527649H44V29.0943H34.6436V0.0527649Z" fill="white"/>
</mask>
<g mask="url(#mask1_32_53)">
<path d="M40.807 4.72016V11.3973C40.807 12.5512 41.3849 13.129 42.5374 13.129C42.9603 13.129 43.3091 13.2663 43.5854 13.541C43.8617 13.8156 43.9999 14.1623 43.9999 14.581C43.9999 15.0013 43.8617 15.348 43.5854 15.6227C43.3091 15.8973 42.9603 16.0346 42.5374 16.0346C41.3849 16.0346 40.807 16.6124 40.807 17.7663V24.4435C40.807 27.5434 39.245 29.0942 36.1212 29.0942C35.7 29.0942 35.3512 28.9535 35.0732 28.6755C34.7969 28.3958 34.6587 28.0458 34.6587 27.6271C34.6587 27.2084 34.7969 26.8618 35.0732 26.5871C35.3512 26.3125 35.7 26.1751 36.1212 26.1751C37.2855 26.1751 37.8668 25.5974 37.8668 24.4435V17.7663C37.8668 16.4249 38.1768 15.3631 38.7952 14.581C38.1768 13.7989 37.8668 12.7371 37.8668 11.3973V4.72016C37.8668 3.56627 37.2855 2.98848 36.1212 2.98848C35.7 2.98848 35.3512 2.85116 35.0732 2.5765C34.7969 2.30184 34.6587 1.95517 34.6587 1.53649C34.6587 1.12618 34.7969 0.779513 35.0732 0.494809C35.3512 0.211779 35.7 0.0694275 36.1212 0.0694275C39.245 0.0694275 40.807 1.62023 40.807 4.72016Z" fill="white"/>
</g>
</svg>
